<svg data-v-fde0c5aa="" xmlns="http://www.w3.org/2000/svg" viewBox="0 0 300 300" class="iconAbove"><!----><defs data-v-fde0c5aa=""><!----></defs><rect data-v-fde0c5aa="" fill="transparent" x="0" y="0" width="300px" height="300px" class="logo-background-square"></rect><defs data-v-fde0c5aa=""><linearGradient data-v-fde0c5aa="" gradientTransform="rotate(25)" id="ad32a860-cfbb-4088-8e52-740c00456c2e" x1="0%" y1="0%" x2="100%" y2="0%"><stop data-v-fde0c5aa="" offset="0%" stop-color="#00BAFF" stop-opacity="1"></stop><stop data-v-fde0c5aa="" offset="100%" stop-color="#307791" stop-opacity="1"></stop></linearGradient></defs><g data-v-fde0c5aa="" id="245c21ea-2fd9-404a-bc55-62ebb4565521" fill="url(#ad32a860-cfbb-4088-8e52-740c00456c2e)" transform="matrix(2.9408435821533203,0,0,2.9408435821533203,19.088338454006514,167.63137741761446)"><path d="M5.43 3.68C3.89 3.68 2.63 4.16 1.71 5.11C0.78 6.06 0.31 7.29 0.31 8.81C0.31 10.32 0.76 11.55 1.62 12.50C2.49 13.45 3.67 13.93 5.10 13.93C6.64 13.93 7.84 13.43 8.71 12.42L8.18 11.83C8.12 11.77 8.04 11.75 7.95 11.75C7.87 11.75 7.81 11.79 7.73 11.86C7.36 12.19 6.94 12.42 6.50 12.59C6.19 12.70 5.75 12.75 5.17 12.75C4.16 12.75 3.33 12.42 2.69 11.72C2.02 10.99 1.68 10.01 1.68 8.81C1.68 7.60 2.03 6.64 2.70 5.91C3.77 4.79 5.32 4.55 7.42 5.22C7.42 5.28 7.45 5.49 7.48 5.85C7.50 6.22 7.52 6.43 7.53 6.48C7.56 6.65 7.67 6.73 7.84 6.73L8.51 6.73L8.51 5.17L8.51 4.38C7.24 3.91 6.19 3.67 5.40 3.67ZM16.45 6.73L13.82 6.73L13.82 7.32C13.82 7.46 13.87 7.56 14.01 7.59C14.15 7.62 14.41 7.66 14.78 7.74L13.26 11.44C13.20 11.58 13.12 11.80 13.03 12.08C12.98 11.86 12.94 11.63 12.85 11.44L11.27 7.74C11.72 7.66 11.97 7.60 12.05 7.57C12.19 7.55 12.26 7.46 12.26 7.32L12.26 6.72L9.09 6.72L9.09 7.32C9.09 7.46 9.16 7.55 9.30 7.57C9.38 7.60 9.59 7.66 9.93 7.71L12.42 13.40L11.13 16.21L12.05 16.21C12.25 16.21 12.42 16.10 12.50 15.90L16.02 7.73C16.04 7.73 16.17 7.70 16.37 7.66C16.56 7.62 16.70 7.57 16.74 7.57C16.88 7.55 16.95 7.46 16.95 7.32L16.95 6.72ZM24.82 10.23C24.82 9.65 24.75 9.11 24.63 8.67C24.50 8.22 24.32 7.85 24.09 7.55C23.87 7.24 23.59 7.00 23.25 6.85C22.92 6.69 22.55 6.62 22.13 6.62C21.64 6.62 21.22 6.72 20.85 6.93C20.47 7.14 20.13 7.42 19.84 7.76L19.84 3.51L18.62 3.51L18.58 3.51L17.47 3.51L17.47 4.12C17.47 4.24 17.56 4.35 17.68 4.38C17.79 4.41 18.41 4.49 18.58 4.52L18.58 12.40L18.58 13.43L18.58 13.54C18.58 13.54 20.45 13.93 21.71 13.93C22.16 13.93 22.57 13.85 22.95 13.68C23.32 13.51 23.65 13.29 23.93 12.98C24.21 12.67 24.43 12.28 24.60 11.83C24.77 11.38 24.85 10.86 24.85 10.28L24.85 10.26L24.85 10.23ZM23.00 12.25C22.83 12.47 22.61 12.67 22.36 12.78C22.13 12.89 21.88 12.94 21.60 12.95L21.50 12.95L21.24 12.95C20.62 12.92 20.02 12.78 19.84 12.73L19.84 12.11L19.84 10.35L19.84 8.68C20.09 8.34 20.37 8.08 20.68 7.88C20.99 7.69 21.35 7.60 21.76 7.60C22.04 7.60 22.30 7.64 22.53 7.74C22.75 7.84 22.93 8.01 23.09 8.22C23.24 8.43 23.37 8.69 23.45 9.03C23.53 9.37 23.56 9.74 23.56 10.21L23.56 10.32C23.56 10.71 23.51 11.07 23.42 11.38C23.32 11.72 23.18 12.00 23.02 12.22ZM29.01 6.62C28.50 6.62 28.04 6.71 27.62 6.89C27.20 7.07 26.85 7.32 26.57 7.63C26.29 7.94 26.07 8.33 25.91 8.75C25.76 9.17 25.68 9.62 25.68 10.12C25.68 10.74 25.76 11.27 25.93 11.75C26.10 12.22 26.32 12.61 26.63 12.94C26.94 13.26 27.29 13.51 27.71 13.68C28.13 13.85 28.57 13.93 29.06 13.93C29.32 13.93 29.58 13.90 29.83 13.86C30.09 13.82 30.34 13.75 30.59 13.66C30.84 13.58 31.05 13.45 31.28 13.31C31.50 13.17 31.68 13.03 31.84 12.84L31.49 12.38C31.43 12.29 31.36 12.25 31.25 12.25C31.16 12.25 31.08 12.29 30.97 12.36C30.86 12.43 30.72 12.50 30.55 12.59C30.38 12.67 30.18 12.75 29.96 12.82C29.74 12.89 29.46 12.92 29.15 12.92C28.81 12.92 28.53 12.87 28.25 12.75C27.97 12.64 27.75 12.47 27.55 12.25C27.36 12.03 27.19 11.77 27.08 11.44C26.96 11.10 26.91 10.71 26.91 10.26L31.61 10.26C31.72 10.26 31.82 10.22 31.86 10.16C31.91 10.11 31.92 9.97 31.92 9.77C31.92 9.27 31.84 8.82 31.70 8.43C31.56 8.04 31.33 7.70 31.08 7.43C30.83 7.17 30.52 6.97 30.16 6.83C29.79 6.69 29.40 6.62 28.98 6.62ZM29.01 7.55C29.29 7.55 29.55 7.59 29.78 7.69C30.00 7.78 30.20 7.92 30.35 8.09C30.51 8.26 30.60 8.48 30.69 8.72C30.77 8.96 30.81 9.23 30.81 9.51L26.96 9.51C27.05 8.89 27.27 8.40 27.61 8.05C27.94 7.70 28.42 7.53 29.02 7.53ZM34.94 8.18L34.86 7.07C34.83 6.94 34.80 6.86 34.75 6.80C34.69 6.75 34.62 6.73 34.48 6.73L33.77 6.73L32.76 6.73L32.76 7.32C32.76 7.46 32.83 7.56 32.97 7.59C33.05 7.62 33.32 7.67 33.77 7.76L33.77 12.81L32.97 12.96C32.83 12.99 32.76 13.09 32.76 13.23L32.76 13.82L36.02 13.82L36.02 13.23C36.02 13.09 35.95 12.99 35.81 12.96C35.39 12.88 35.13 12.84 35.01 12.81L35.01 9.31C35.41 8.33 36.02 7.83 36.83 7.83C37.09 7.83 37.27 7.85 37.41 7.90C37.55 7.94 37.66 7.97 37.74 7.97C37.83 7.97 37.90 7.90 37.93 7.78L38.08 6.85C37.80 6.68 37.48 6.59 37.11 6.59C36.19 6.59 35.48 7.13 34.96 8.18ZM44.24 4.00C43.76 3.86 43.23 3.79 42.59 3.79L38.81 3.79L38.81 4.38C38.81 4.52 38.88 4.62 39.02 4.65C39.10 4.68 39.37 4.73 39.82 4.82L39.82 12.81L39.02 12.96C38.88 12.99 38.81 13.09 38.81 13.23L38.81 13.82L42.17 13.82L42.17 13.23C42.17 13.09 42.11 12.99 41.97 12.96C41.52 12.88 41.24 12.82 41.16 12.80L41.16 10.07L42.59 10.07C43.76 10.07 44.69 9.76 45.36 9.17C46.00 8.61 46.31 7.85 46.31 6.90C46.31 5.42 45.63 4.44 44.24 3.99ZM44.97 6.89C44.97 7.53 44.76 8.04 44.34 8.41C43.92 8.79 43.34 8.97 42.59 8.97L41.16 8.97L41.16 4.86L42.59 4.86C43.39 4.86 43.97 5.03 44.37 5.39C44.76 5.75 44.95 6.23 44.95 6.87ZM50.09 6.62C49.57 6.62 49.11 6.71 48.69 6.87C48.27 7.04 47.91 7.29 47.61 7.60C47.32 7.91 47.10 8.30 46.93 8.75C46.76 9.20 46.70 9.70 46.70 10.26C46.70 10.82 46.76 11.33 46.93 11.77C47.10 12.22 47.32 12.61 47.61 12.92C47.91 13.23 48.27 13.48 48.69 13.65C49.11 13.82 49.57 13.90 50.09 13.90C50.61 13.90 51.07 13.82 51.49 13.65C51.91 13.48 52.28 13.23 52.57 12.92C52.86 12.61 53.09 12.22 53.24 11.77C53.40 11.33 53.48 10.82 53.48 10.26C53.48 9.70 53.40 9.20 53.24 8.75C53.09 8.30 52.86 7.91 52.57 7.60C52.28 7.29 51.91 7.04 51.49 6.87C51.07 6.71 50.61 6.62 50.09 6.62ZM50.09 12.95C49.73 12.95 49.42 12.87 49.17 12.75C48.92 12.64 48.69 12.47 48.52 12.25C48.36 12.03 48.22 11.75 48.13 11.41C48.05 11.07 47.99 10.71 47.99 10.29C47.99 9.87 48.05 9.48 48.13 9.14C48.22 8.81 48.36 8.53 48.52 8.30C48.69 8.08 48.92 7.88 49.17 7.77C49.42 7.66 49.73 7.60 50.09 7.60C50.79 7.60 51.32 7.83 51.66 8.30C52.00 8.78 52.18 9.44 52.18 10.28C52.18 11.12 52.00 11.77 51.66 12.25C51.32 12.73 50.79 12.95 50.09 12.95ZM57.29 12.95C57.20 12.92 56.95 12.87 56.50 12.78L56.50 3.50L54.24 3.50L54.24 4.10C54.24 4.24 54.32 4.33 54.46 4.35C54.54 4.38 54.80 4.44 55.24 4.52L55.24 12.80L54.46 12.95C54.32 12.98 54.24 13.08 54.24 13.22L54.24 13.82L57.51 13.82L57.51 13.22C57.51 13.08 57.43 12.98 57.29 12.95ZM65.41 6.73L62.78 6.73L62.78 7.32C62.78 7.46 62.83 7.56 62.97 7.59C63.11 7.62 63.36 7.66 63.74 7.74L62.22 11.44C62.16 11.58 62.08 11.80 61.99 12.08C61.94 11.86 61.89 11.63 61.81 11.44L60.23 7.74C60.68 7.66 60.93 7.60 61.01 7.57C61.15 7.55 61.22 7.46 61.22 7.32L61.22 6.72L58.04 6.72L58.04 7.32C58.04 7.46 58.11 7.55 58.25 7.57C58.34 7.60 58.55 7.66 58.88 7.71L61.38 13.40L60.09 16.21L61.01 16.21C61.21 16.21 61.38 16.10 61.46 15.90L64.97 7.73C65.00 7.73 65.13 7.70 65.32 7.66C65.52 7.62 65.66 7.57 65.70 7.57C65.84 7.55 65.91 7.46 65.91 7.32L65.91 6.72ZM69.06 6.61C68.67 6.61 68.32 6.65 67.98 6.76C67.65 6.87 67.35 7.03 67.12 7.22C66.88 7.42 66.70 7.66 66.56 7.94C66.42 8.22 66.36 8.54 66.36 8.88C66.36 9.31 66.46 9.69 66.65 10.01C66.85 10.33 67.13 10.60 67.48 10.79C67.34 10.88 67.20 10.95 67.09 11.05C66.98 11.14 66.88 11.24 66.79 11.35C66.71 11.47 66.65 11.58 66.63 11.69C66.60 11.80 66.57 11.89 66.57 12.00C66.57 12.25 66.64 12.47 66.75 12.63C66.86 12.78 67.03 12.92 67.23 13.01C66.84 13.15 66.53 13.34 66.30 13.59C66.08 13.85 65.97 14.14 65.97 14.49C65.97 14.74 66.04 14.97 66.16 15.19C66.29 15.41 66.49 15.62 66.74 15.79C66.99 15.96 67.31 16.10 67.70 16.21C68.10 16.32 68.56 16.37 69.08 16.37C69.59 16.37 70.06 16.31 70.48 16.17C70.90 16.03 71.23 15.86 71.51 15.64C71.79 15.41 72.03 15.16 72.18 14.88C72.34 14.60 72.41 14.29 72.41 13.99C72.41 13.65 72.35 13.40 72.21 13.20C72.07 13.01 71.89 12.82 71.67 12.71C71.44 12.60 71.18 12.52 70.90 12.46C70.62 12.40 70.32 12.39 70.03 12.36C69.73 12.33 69.44 12.31 69.16 12.31C68.88 12.31 68.61 12.28 68.39 12.25C68.17 12.22 67.98 12.15 67.84 12.07C67.70 11.98 67.65 11.86 67.65 11.69C67.65 11.58 67.68 11.49 67.76 11.38C67.84 11.27 67.96 11.16 68.10 11.07C68.39 11.16 68.70 11.20 69.03 11.20C69.43 11.20 69.78 11.16 70.10 11.05C70.42 10.93 70.70 10.77 70.94 10.57C71.18 10.37 71.34 10.14 71.48 9.86C71.62 9.58 71.68 9.25 71.68 8.92C71.68 8.55 71.62 8.22 71.46 7.91L72.25 7.80C72.45 7.76 72.55 7.66 72.55 7.50L72.55 7.04L70.62 7.04C70.39 6.90 70.15 6.80 69.89 6.73C69.62 6.66 69.34 6.64 69.03 6.64ZM71.25 14.24C71.25 14.43 71.19 14.59 71.09 14.74C70.99 14.90 70.85 15.02 70.67 15.13C70.49 15.25 70.27 15.34 70 15.40C69.73 15.46 69.44 15.50 69.10 15.50C68.77 15.50 68.46 15.47 68.21 15.41C67.96 15.36 67.75 15.27 67.58 15.18C67.41 15.08 67.28 14.97 67.20 14.83C67.12 14.69 67.07 14.55 67.07 14.38C67.07 14.13 67.16 13.90 67.33 13.72C67.49 13.54 67.72 13.38 67.98 13.26C68.21 13.29 68.45 13.33 68.70 13.34C68.95 13.36 69.19 13.36 69.44 13.37C69.69 13.38 69.92 13.41 70.14 13.44C70.36 13.47 70.55 13.51 70.71 13.57C70.88 13.62 71.02 13.71 71.12 13.82C71.22 13.93 71.26 14.07 71.26 14.24ZM69.05 10.37C68.80 10.37 68.60 10.35 68.40 10.28C68.21 10.21 68.05 10.11 67.91 9.98C67.77 9.86 67.69 9.70 67.62 9.53C67.55 9.37 67.51 9.17 67.51 8.96C67.51 8.53 67.63 8.18 67.90 7.92C68.17 7.67 68.54 7.55 69.05 7.55C69.55 7.55 69.93 7.67 70.20 7.92C70.46 8.18 70.60 8.53 70.60 8.96C70.60 9.17 70.56 9.37 70.50 9.53C70.45 9.70 70.35 9.87 70.21 10.00C70.07 10.12 69.92 10.22 69.72 10.29C69.52 10.36 69.30 10.40 69.05 10.40ZM76.62 6.62C76.10 6.62 75.64 6.71 75.22 6.87C74.80 7.04 74.44 7.29 74.14 7.60C73.85 7.91 73.63 8.30 73.46 8.75C73.29 9.20 73.23 9.70 73.23 10.26C73.23 10.82 73.29 11.33 73.46 11.77C73.63 12.22 73.85 12.61 74.14 12.92C74.44 13.23 74.80 13.48 75.22 13.65C75.64 13.82 76.10 13.90 76.62 13.90C77.14 13.90 77.60 13.82 78.02 13.65C78.44 13.48 78.81 13.23 79.10 12.92C79.39 12.61 79.62 12.22 79.77 11.77C79.93 11.33 80.01 10.82 80.01 10.26C80.01 9.70 79.93 9.20 79.77 8.75C79.62 8.30 79.39 7.91 79.10 7.60C78.81 7.29 78.44 7.04 78.02 6.87C77.60 6.71 77.14 6.62 76.62 6.62ZM76.62 12.95C76.26 12.95 75.95 12.87 75.70 12.75C75.45 12.64 75.22 12.47 75.05 12.25C74.89 12.03 74.75 11.75 74.66 11.41C74.58 11.07 74.52 10.71 74.52 10.29C74.52 9.87 74.58 9.48 74.66 9.14C74.75 8.81 74.89 8.53 75.05 8.30C75.22 8.08 75.45 7.88 75.70 7.77C75.95 7.66 76.26 7.60 76.62 7.60C77.32 7.60 77.85 7.83 78.19 8.30C78.53 8.78 78.71 9.44 78.71 10.28C78.71 11.12 78.53 11.77 78.19 12.25C77.85 12.73 77.32 12.95 76.62 12.95ZM82.98 7.76L82.87 6.99C82.81 6.82 82.70 6.73 82.53 6.73L81.80 6.73L80.79 6.73L80.79 7.32C80.79 7.46 80.85 7.56 80.99 7.59C81.07 7.62 81.35 7.67 81.80 7.76L81.80 12.81L80.99 12.96C80.85 12.99 80.79 13.09 80.79 13.23L80.79 13.82L84.06 13.82L84.06 13.23C84.06 13.09 83.99 12.99 83.85 12.96C83.34 12.85 83.06 12.80 83.03 12.80L83.03 8.60C83.62 7.94 84.27 7.60 84.97 7.60C85.96 7.60 86.45 8.19 86.45 9.31L86.45 13.82L88.72 13.82L88.72 13.22C88.72 13.08 88.63 12.98 88.49 12.95C88.41 12.92 88.14 12.87 87.70 12.78L87.70 9.30C87.70 8.48 87.49 7.83 87.09 7.35C86.67 6.85 86.09 6.61 85.33 6.61C84.46 6.61 83.68 6.99 82.98 7.74Z"></path></g><defs data-v-fde0c5aa=""><linearGradient data-v-fde0c5aa="" gradientTransform="rotate(25)" id="a6425df5-5d08-4284-aa70-d7f061bfcc7a" x1="0%" y1="0%" x2="100%" y2="0%"><stop data-v-fde0c5aa="" offset="0%" stop-color="#307791" stop-opacity="1"></stop><stop data-v-fde0c5aa="" offset="100%" stop-color="#00BAFF" stop-opacity="1"></stop></linearGradient></defs><g data-v-fde0c5aa="" id="278f1e9c-adf3-4f02-b57a-33ff4bf1c657" stroke="none" fill="url(#a6425df5-5d08-4284-aa70-d7f061bfcc7a)" transform="matrix(0.9156786203384399,0,0,0.9156786203384399,104.0700171648648,75.89158679882337)"><path d="M63.777 71.124l3.973 6.092 8.296-11.295-13.59 3.176zM65.756 79.89l-16.672-5.939 7.666 17.82zM64.758 77.001l-4.763-7.305-9.05 2.382zM20.14 18.276l15.202 11.532-5.26-10.291-2.777-5.434zM66.205 10.339l-2.716 17.655 1.412-.706 15.661-7.83zM69.092 34.966l5.477 4.979 6.312-17.976-1.76.88-15.07 7.534zM79.121 22.849l-15.07 7.534zM83.234 22.473l-5.748 16.374 10.626-7.664zM83.719 48.972l2.15 2.151 2.599-6.824-10.234-.812zM88.904 41.938l-.332-8.142-10.137 7.311 3.402.27zM81.837 41.377l-3.402-.27zM63.7 42.49l-2.645-11.036-19.092 3.149 23.62 15.746zM62.753 66.297l-.141.311 11.571-2.705 2.324-.543-8.662-8.299z"></path><path d="M62.612 66.608l11.571-2.705-11.571 2.705zM73.521 42.219l-8.438-7.67-1.062-.965 3.973 16.579zM64.021 33.584l1.062.965zM78.067 46.698l-2.803-2.803-1.752 2.519-3.792 5.452 13.689.174zM83.409 52.04l-5.342-5.342zM73.512 46.414l1.752-2.519zM84.075 54.437l-13.61-.173 8.269 7.924zM29.283 59.713l-5.844.932 7.494 4.784 2.76-5.144.748-1.394zM43.916 69.737l-7.145-10.136-3.656 6.812zM39.788 36.022l-.533 5.802-1.296 14.117 26.219-3.658zM57 68.016l-16.834-7.745 6.231 8.841 1.007 1.429z"></path><path d="M40.166 60.271l6.231 8.841-6.231-8.841zM65.47 54.514l-5.328.743-19.307 2.694 19.098 8.784zM65.47 54.514l-5.328.743zM11.901 45.966l2.994-2.619 3.496-3.059-6.976-4.381zM17.242 22.27L11.67 33.247l7.261 4.56zM12.481 48.632l6.512 8.014.166-13.857-.037.032zM19.122 42.821l.037-.032zM36.266 33.507L19.482 20.774l1.929 17.748zM34.212 56.509l-3.043-3.222-9.626-10.192-.03 2.487-.155 12.977zM21.543 43.095l-.03 2.487.03-2.487zM37.426 35.636l-7.43 2.508-7.464 2.521 13.153 13.926.963-10.488zM36.648 44.103l.778-8.467zM29.996 38.144l7.43-2.508zM39.303 17.145l-9.17-2.775 8.578 16.785 5.596-12.496zM42.478 9.365L31.98 12.434l3.473 1.051 8.802 2.664z"></path><path d="M31.98 12.434l3.473 1.051-3.473-1.051zM45.61 21.593l-4.83 10.785 18.25-3.011-1.034-.788-11.571-8.808z"></path><path d="M49.905 21.624h.001v18.497h-.001zM46.425 19.771l-.815 1.822.815-1.822zM44.878 9.103l1.856 7.087 13.669-6.75zM48.207 18.127l12.876 9.801 2.69-17.489z"></path></g><!----></svg>